_Griffith_Gothic-Condensed_WebTT.ufo
<glyph name="exclam" format="1">
  <advance width="425.984"/>
  <unicode hex="0021"/>
  <outline>
    <contour>
      <point x="213" y="190" type="qcurve" smooth="yes"/>
      <point x="257.029850746" y="190.0"/>
      <point x="315.0" y="132.029850746"/>
      <point x="315" y="88" type="qcurve" smooth="yes"/>
      <point x="315.0" y="43.9701492537"/>
      <point x="257.029850746" y="-14.0"/>
      <point x="213" y="-14" type="qcurve" smooth="yes"/>
      <point x="168.970149254" y="-14.0"/>
      <point x="111.0" y="43.9701492537"/>
      <point x="111" y="88" type="qcurve" smooth="yes"/>
      <point x="111.0" y="132.029850746"/>
      <point x="168.970149254" y="190.0"/>
    </contour>
    <contour>
      <point x="119" y="1475" type="line"/>
      <point x="309" y="1475" type="line"/>
      <point x="256" y="397" type="line"/>
      <point x="170" y="397" type="line"/>
    </contour>
  </outline>
</glyph>
<glyph name="numbersign" format="1">
  <advance width="1003.52"/>
  <unicode hex="0023"/>
  <outline>
    <contour>
      <point x="963" y="1081" type="line"/>
      <point x="963" y="940" type="line"/>
      <point x="764" y="940" type="line"/>
      <point x="711" y="541" type="line"/>
      <point x="905" y="541" type="line"/>
      <point x="905" y="399" type="line"/>
      <point x="692" y="399" type="line"/>
      <point x="639" y="0" type="line"/>
      <point x="549" y="0" type="line"/>
      <point x="600" y="399" type="line"/>
      <point x="317" y="399" type="line"/>
      <point x="264" y="0" type="line"/>
      <point x="172" y="0" type="line"/>
      <point x="225" y="399" type="line"/>
      <point x="45" y="399" type="line"/>
      <point x="45" y="541" type="line"/>
      <point x="246" y="541" type="line"/>
      <point x="297" y="940" type="line"/>
      <point x="102" y="940" type="line"/>
      <point x="102" y="1081" type="line"/>
      <point x="317" y="1081" type="line"/>
      <point x="369" y="1475" type="line"/>
      <point x="461" y="1475" type="line"/>
      <point x="408" y="1081" type="line"/>
      <point x="692" y="1081" type="line"/>
      <point x="743" y="1475" type="line"/>
      <point x="836" y="1475" type="line"/>
      <point x="784" y="1081" type="line"/>
    </contour>
    <contour>
      <point x="621" y="539" type="line"/>
      <point x="676" y="942" type="line"/>
      <point x="387" y="942" type="line"/>
      <point x="334" y="539" type="line"/>
    </contour>
  </outline>
</glyph>
<glyph name="parenright" format="1">
  <advance width="534.528"/>
  <unicode hex="0029"/>
  <outline>
    <contour>
      <point x="172" y="1505" type="line"/>
      <point x="281.701492537" y="1357.23880597"/>
      <point x="449.0" y="937.835820896"/>
      <point x="449" y="655" type="qcurve" smooth="yes"/>
      <point x="449.0" y="372.164179104"/>
      <point x="281.701492537" y="-46.4925373134"/>
      <point x="172" y="-195" type="qcurve"/>
      <point x="43" y="-195" type="line"/>
      <point x="162.402985075" y="-12.9104477612"/>
      <point x="291.0" y="404.253731343"/>
      <point x="291" y="655" type="qcurve" smooth="yes"/>
      <point x="291.0" y="905.746268657"/>
      <point x="162.402985075" y="1323.65671642"/>
      <point x="43" y="1505" type="qcurve"/>
    </contour>
  </outline>
</glyph>
<glyph name="asterisk" format="1">
  <advance width="675.84"/>
  <unicode hex="002A"/>
  <outline>
    <contour>
      <point x="582" y="1350" type="line"/>
      <point x="621" y="1231" type="line"/>
      <point x="383" y="1192" type="line"/>
      <point x="559" y="1018" type="line"/>
      <point x="455" y="942" type="line"/>
      <point x="338" y="1163" type="line"/>
      <point x="221" y="942" type="line"/>
      <point x="117" y="1018" type="line"/>
      <point x="293" y="1192" type="line"/>
      <point x="55" y="1231" type="line"/>
      <point x="94" y="1350" type="line"/>
      <point x="311" y="1235" type="line"/>
      <point x="274" y="1475" type="line"/>
      <point x="401" y="1475" type="line"/>
      <point x="365" y="1235" type="line"/>
    </contour>
  </outline>
</glyph>
<glyph name="plus" format="1">
  <advance width="968.704"/>
  <unicode hex="002B"/>
  <outline>
    <contour>
      <point x="899" y="795" type="line"/>
      <point x="899" y="659" type="line"/>
      <point x="555" y="659" type="line"/>
      <point x="555" y="283" type="line"/>
      <point x="414" y="283" type="line"/>
      <point x="414" y="659" type="line"/>
      <point x="68" y="659" type="line"/>
      <point x="68" y="795" type="line"/>
      <point x="414" y="795" type="line"/>
      <point x="414" y="1171" type="line"/>
      <point x="555" y="1171" type="line"/>
      <point x="555" y="795" type="line"/>
    </contour>
  </outline>
</glyph>
<glyph name="hyphen" format="1">
  <advance width="497.664"/>
  <unicode hex="002D"/>
  <unicode hex="2010"/>
  <unicode hex="2011"/>
  <outline>
    <contour>
      <point x="453" y="649" type="line"/>
      <point x="453" y="508" type="line"/>
      <point x="59" y="508" type="line"/>
      <point x="59" y="649" type="line"/>
    </contour>
  </outline>
</glyph>
<glyph name="slash" format="1">
  <advance width="638.976"/>
  <unicode hex="002F"/>
  <outline>
    <contour>
      <point x="477" y="1505" type="line"/>
      <point x="616" y="1505" type="line"/>
      <point x="115" y="-195" type="line"/>
      <point x="-25" y="-195" type="line"/>
    </contour>
  </outline>
</glyph>
<glyph name="zero" format="1">
  <advance width="980.992"/>
  <unicode hex="0030"/>
  <outline>
    <contour>
      <point x="903" y="848" type="qcurve" smooth="yes"/>
      <point x="903" y="629" type="line" smooth="yes"/>
      <point x="903.0" y="320.044776119"/>
      <point x="677.059701493" y="-25.0"/>
      <point x="489" y="-25" type="qcurve" smooth="yes"/>
      <point x="297.955223881" y="-25.0"/>
      <point x="76.0" y="318.044776119"/>
      <point x="76" y="627" type="qcurve" smooth="yes"/>
      <point x="76" y="846" type="line" smooth="yes"/>
      <point x="76.0" y="1154.95522388"/>
      <point x="297.955223881" y="1499.0"/>
      <point x="489" y="1499" type="qcurve" smooth="yes"/>
      <point x="677.059701493" y="1499.0"/>
      <point x="903.0" y="1155.46268657"/>
    </contour>
    <contour>
      <point x="489" y="106" type="qcurve" smooth="yes"/>
      <point x="612.880597015" y="106.0"/>
      <point x="737.0" y="395.074626866"/>
      <point x="737" y="610" type="qcurve" smooth="yes"/>
      <point x="737" y="860" type="line" smooth="yes"/>
      <point x="737.0" y="1075.67164179"/>
      <point x="612.880597015" y="1370.0"/>
      <point x="489" y="1370" type="qcurve" smooth="yes"/>
      <point x="365.865671642" y="1370.0"/>
      <point x="242.0" y="1078.17910448"/>
      <point x="242" y="864" type="qcurve" smooth="yes"/>
      <point x="242" y="614" type="line" smooth="yes"/>
      <point x="242.0" y="399.074626866"/>
      <point x="365.865671642" y="106.0"/>
    </contour>
  </outline>
</glyph>
<glyph name="one" format="1">
  <advance width="710.656"/>
  <unicode hex="0031"/>
  <outline>
    <contour>
      <point x="676" y="115" type="line"/>
      <point x="676" y="0" type="line"/>
      <point x="76" y="0" type="line"/>
      <point x="76" y="115" type="line"/>
      <point x="301" y="115" type="line"/>
      <point x="301" y="1360" type="line"/>
      <point x="57" y="1360" type="line"/>
      <point x="57" y="1475" type="line"/>
      <point x="461" y="1475" type="line"/>
      <point x="461" y="115" type="line"/>
    </contour>
  </outline>
</glyph>
<glyph name="three" format="1">
  <advance width="854.016"/>
  <unicode hex="0033"/>
  <outline>
    <contour>
      <point x="471" y="819" type="line"/>
      <point x="606.820895522" y="836.164179104"/>
      <point x="795.0" y="680.417910448"/>
      <point x="795" y="514" type="qcurve" smooth="yes"/>
      <point x="795.0" y="266.23880597"/>
      <point x="356.850746269" y="-12.9850746269"/>
      <point x="27" y="-10" type="qcurve"/>
      <point x="27" y="121" type="line"/>
      <point x="306.104477612" y="122.492537313"/>
      <point x="627.0" y="332.895522388"/>
      <point x="627" y="512" type="qcurve" smooth="yes"/>
      <point x="627.0" y="620.208955224"/>
      <point x="530.805970149" y="727.0"/>
      <point x="442" y="727" type="qcurve" smooth="yes"/>
      <point x="396.47761194" y="727.0"/>
      <point x="319.567164179" y="710.686567164"/>
      <point x="283" y="698" type="qcurve"/>
      <point x="246" y="813" type="line"/>
      <point x="409.432835821" y="889.119402985"/>
      <point x="567.0" y="1053.80597015"/>
      <point x="567" y="1165" type="qcurve" smooth="yes"/>
      <point x="567.0" y="1256.79104478"/>
      <point x="481.358208955" y="1368.0"/>
      <point x="403" y="1368" type="qcurve" smooth="yes"/>
      <point x="331.358208955" y="1368.0"/>
      <point x="217.731343284" y="1276.80597015"/>
      <point x="164" y="1188" type="qcurve"/>
      <point x="68" y="1268" type="line"/>
      <point x="130.686567164" y="1370.23880597"/>
      <point x="300.626865672" y="1501.0"/>
      <point x="426" y="1501" type="qcurve" smooth="yes"/>
      <point x="571.52238806" y="1501.0"/>
      <point x="729.0" y="1335.82089552"/>
      <point x="729" y="1200" type="qcurve" smooth="yes"/>
      <point x="729.0" y="1067.1641791"/>
      <point x="585.417910448" y="888.194029851"/>
      <point x="469" y="827" type="qcurve"/>
    </contour>
  </outline>
</glyph>
<glyph name="six" format="1">
  <advance width="923.648"/>
  <unicode hex="0036"/>
  <outline>
    <contour>
      <point x="526" y="924" type="qcurve" smooth="yes"/>
      <point x="671.52238806" y="924.0"/>
      <point x="877.0" y="689.149253731"/>
      <point x="877" y="469" type="qcurve" smooth="yes"/>
      <point x="877.0" y="241.388059701"/>
      <point x="649.089552239" y="-25.0"/>
      <point x="467" y="-25" type="qcurve" smooth="yes"/>
      <point x="284.910447761" y="-25.0"/>
      <point x="70.0" y="246.328358209"/>
      <point x="70" y="512" type="qcurve" smooth="yes"/>
      <point x="70.0" y="785.880597015"/>
      <point x="270.626865672" y="1274.25373134"/>
      <point x="446" y="1475" type="qcurve"/>
      <point x="649" y="1475" type="line"/>
      <point x="481.089552239" y="1306.34328358"/>
      <point x="270.089552239" y="918.925373134"/>
      <point x="238" y="754" type="qcurve"/>
      <point x="250" y="754" type="line"/>
      <point x="295.52238806" y="828.626865672"/>
      <point x="423.76119403" y="924.0"/>
    </contour>
    <contour>
      <point x="473" y="98" type="qcurve" smooth="yes"/>
      <point x="586.432835821" y="98.0"/>
      <point x="711.0" y="299.537313433"/>
      <point x="711" y="457" type="qcurve" smooth="yes"/>
      <point x="711.0" y="611.47761194"/>
      <point x="594.940298507" y="801.0"/>
      <point x="483" y="801" type="qcurve" smooth="yes"/>
      <point x="367.328358209" y="801.0"/>
      <point x="236.0" y="598.791044776"/>
      <point x="236" y="457" type="qcurve" smooth="yes"/>
      <point x="236.0" y="301.029850746"/>
      <point x="358.074626866" y="98.0"/>
    </contour>
  </outline>
</glyph>
<glyph name="nine" format="1">
  <advance width="923.648"/>
  <unicode hex="0039"/>
  <outline>
    <contour>
      <point x="457" y="1499" type="qcurve" smooth="yes"/>
      <point x="638.343283582" y="1499.0"/>
      <point x="854.0" y="1228.67164179"/>
      <point x="854" y="963" type="qcurve" smooth="yes"/>
      <point x="854.0" y="689.119402985"/>
      <point x="653.119402985" y="200.0"/>
      <point x="477" y="0" type="qcurve"/>
      <point x="272" y="0" type="line"/>
      <point x="442.149253731" y="167.910447761"/>
      <point x="653.402985075" y="556.074626866"/>
      <point x="684" y="721" type="qcurve"/>
      <point x="674" y="721" type="line"/>
      <point x="626.23880597" y="646.373134328"/>
      <point x="497.746268657" y="551.0"/>
      <point x="397" y="551" type="qcurve" smooth="yes"/>
      <point x="250.731343284" y="551.0"/>
      <point x="45.0" y="785.850746269"/>
      <point x="45" y="1006" type="qcurve" smooth="yes"/>
      <point x="45.0" y="1233.6119403"/>
      <point x="274.910447761" y="1499.0"/>
    </contour>
    <contour>
      <point x="440" y="674" type="qcurve" smooth="yes"/>
      <point x="556.417910448" y="674.0"/>
      <point x="688.0" y="875.462686567"/>
      <point x="688" y="1018" type="qcurve" smooth="yes"/>
      <point x="688.0" y="1173.97014925"/>
      <point x="565.179104478" y="1376.0"/>
      <point x="451" y="1376" type="qcurve" smooth="yes"/>
      <point x="337.567164179" y="1376.0"/>
      <point x="213.0" y="1175.46268657"/>
      <point x="213" y="1018" type="qcurve" smooth="yes"/>
      <point x="213.0" y="863.52238806"/>
      <point x="327.313432836" y="674.0"/>
    </contour>
  </outline>
</glyph>
<glyph name="colon" format="1">
  <advance width="378.88"/>
  <unicode hex="003A"/>
  <outline>
    <contour>
      <point x="190" y="190" type="qcurve" smooth="yes"/>
      <point x="234.776119403" y="190.0"/>
      <point x="293.0" y="132.029850746"/>
      <point x="293" y="88" type="qcurve" smooth="yes"/>
      <point x="293.0" y="43.9701492537"/>
      <point x="234.776119403" y="-14.0"/>
      <point x="190" y="-14" type="qcurve" smooth="yes"/>
      <point x="145.970149254" y="-14.0"/>
      <point x="86.0" y="43.9701492537"/>
      <point x="86" y="88" type="qcurve" smooth="yes"/>
      <point x="86.0" y="132.029850746"/>
      <point x="145.970149254" y="190.0"/>
    </contour>
    <contour>
      <point x="190" y="1077" type="qcurve" smooth="yes"/>
      <point x="234.776119403" y="1077.0"/>
      <point x="293.0" y="1018.52238806"/>
      <point x="293" y="973" type="qcurve" smooth="yes"/>
      <point x="293.0" y="928.223880597"/>
      <point x="234.776119403" y="870.0"/>
      <point x="190" y="870" type="qcurve" smooth="yes"/>
      <point x="145.970149254" y="870.0"/>
      <point x="86.0" y="928.223880597"/>
      <point x="86" y="973" type="qcurve" smooth="yes"/>
      <point x="86.0" y="1018.52238806"/>
      <point x="145.970149254" y="1077.0"/>
    </contour>
  </outline>
</glyph>
<glyph name="A" format="1">
  <advance width="1089.536"/>
  <unicode hex="0041"/>
  <outline>
    <contour>
      <point x="662" y="1483" type="line"/>
      <point x="1051" y="0" type="line"/>
      <point x="877" y="0" type="line"/>
      <point x="782" y="379" type="line"/>
      <point x="299" y="379" type="line"/>
      <point x="205" y="0" type="line"/>
      <point x="37" y="0" type="line"/>
      <point x="428" y="1483" type="line"/>
    </contour>
    <contour>
      <point x="324" y="504" type="line"/>
      <point x="758" y="504" type="line"/>
      <point x="547" y="1331" type="line"/>
      <point x="537" y="1331" type="line"/>
    </contour>
  </outline>
</glyph>
<glyph name="D" format="1">
  <advance width="997.376"/>
  <unicode hex="0044"/>
  <outline>
    <contour>
      <point x="920" y="827" type="qcurve" smooth="yes"/>
      <point x="920" y="649" type="line" smooth="yes"/>
      <point x="920.0" y="337.059701493"/>
      <point x="652.567164179" y="0.0"/>
      <point x="416" y="0" type="qcurve" smooth="yes"/>
      <point x="121" y="0" type="line"/>
      <point x="121" y="1475" type="line"/>
      <point x="422" y="1475" type="line" smooth="yes"/>
      <point x="658.567164179" y="1475.0"/>
      <point x="920.0" y="1137.44776119"/>
    </contour>
    <contour>
      <point x="416" y="127" type="line" smooth="yes"/>
      <point x="574.955223881" y="127.0"/>
      <point x="750.0" y="383.910447761"/>
      <point x="750" y="616" type="qcurve" smooth="yes"/>
      <point x="750" y="854" type="line" smooth="yes"/>
      <point x="750.0" y="1089.07462687"/>
      <point x="574.925373134" y="1348.0"/>
      <point x="410" y="1348" type="qcurve" smooth="yes"/>
      <point x="291" y="1348" type="line"/>
      <point x="291" y="127" type="line"/>
    </contour>
  </outline>
</glyph>
<glyph name="E" format="1">
  <advance width="870.4"/>
  <unicode hex="0045"/>
  <outline>
    <contour>
      <point x="819" y="135" type="line"/>
      <point x="819" y="0" type="line"/>
      <point x="121" y="0" type="line"/>
      <point x="121" y="1475" type="line"/>
      <point x="799" y="1475" type="line"/>
      <point x="799" y="1339" type="line"/>
      <point x="289" y="1339" type="line"/>
      <point x="289" y="836" type="line"/>
      <point x="700" y="836" type="line"/>
      <point x="700" y="705" type="line"/>
      <point x="289" y="705" type="line"/>
      <point x="289" y="135" type="line"/>
    </contour>
  </outline>
</glyph>
<glyph name="G" format="1">
  <advance width="1005.568"/>
  <unicode hex="0047"/>
  <outline>
    <contour>
      <point x="918" y="678" type="line"/>
      <point x="918" y="0" type="line"/>
      <point x="844" y="0" type="line"/>
      <point x="829" y="399" type="line"/>
      <point x="821" y="399" type="line"/>
      <point x="784.432835821" y="203.47761194"/>
      <point x="626.492537313" y="-25.0"/>
      <point x="475" y="-25" type="qcurve" smooth="yes"/>
      <point x="292.910447761" y="-25.0"/>
      <point x="78.0" y="332.552238806"/>
      <point x="78" y="643" type="qcurve" smooth="yes"/>
      <point x="78" y="831" type="line" smooth="yes"/>
      <point x="78.0" y="1142.94029851"/>
      <point x="309.432835821" y="1499.0"/>
      <point x="496" y="1499" type="qcurve" smooth="yes"/>
      <point x="671.373134328" y="1499.0"/>
      <point x="848.432835821" y="1276.32835821"/>
      <point x="885" y="1092" type="qcurve"/>
      <point x="727" y="1047" type="line"/>
      <point x="699.388059701" y="1199.23880597"/>
      <point x="593.76119403" y="1368.0"/>
      <point x="496" y="1368" type="qcurve" smooth="yes"/>
      <point x="372.119402985" y="1368.0"/>
      <point x="248.0" y="1074.62686567"/>
      <point x="248" y="850" type="qcurve" smooth="yes"/>
      <point x="248" y="631" type="line" smooth="yes"/>
      <point x="248.0" y="396.671641791"/>
      <point x="376.597014925" y="106.0"/>
      <point x="496" y="106" type="qcurve" smooth="yes"/>
      <point x="611.671641791" y="106.0"/>
      <point x="724.074626866" y="357.194029851"/>
      <point x="739" y="596" type="qcurve"/>
      <point x="516" y="596" type="line"/>
      <point x="516" y="678" type="line"/>
    </contour>
  </outline>
</glyph>
<glyph name="H" format="1">
  <advance width="1017.856"/>
  <unicode hex="0048"/>
  <outline>
    <contour>
      <point x="899" y="1475" type="line"/>
      <point x="899" y="0" type="line"/>
      <point x="727" y="0" type="line"/>
      <point x="727" y="700" type="line"/>
      <point x="291" y="700" type="line"/>
      <point x="291" y="0" type="line"/>
      <point x="121" y="0" type="line"/>
      <point x="121" y="1475" type="line"/>
      <point x="291" y="1475" type="line"/>
      <point x="291" y="838" type="line"/>
      <point x="727" y="838" type="line"/>
      <point x="727" y="1475" type="line"/>
    </contour>
  </outline>
</glyph>
<glyph name="I" format="1">
  <advance width="655.36"/>
  <unicode hex="0049"/>
  <outline>
    <contour>
      <point x="573" y="74" type="line"/>
      <point x="573" y="0" type="line"/>
      <point x="80" y="0" type="line"/>
      <point x="80" y="74" type="line"/>
      <point x="244" y="74" type="line"/>
      <point x="244" y="1401" type="line"/>
      <point x="80" y="1401" type="line"/>
      <point x="80" y="1475" type="line"/>
      <point x="573" y="1475" type="line"/>
      <point x="573" y="1401" type="line"/>
      <point x="412" y="1401" type="line"/>
      <point x="412" y="74" type="line"/>
    </contour>
  </outline>
</glyph>
<glyph name="K" format="1">
  <advance width="987.136"/>
  <unicode hex="004B"/>
  <outline>
    <contour>
      <point x="508" y="801" type="line"/>
      <point x="985" y="0" type="line"/>
      <point x="795" y="0" type="line"/>
      <point x="334" y="791" type="line"/>
      <point x="334" y="795" type="line"/>
      <point x="776" y="1475" type="line"/>
      <point x="963" y="1475" type="line"/>
    </contour>
    <contour>
      <point x="291" y="1475" type="line"/>
      <point x="291" y="0" type="line"/>
      <point x="121" y="0" type="line"/>
      <point x="121" y="1475" type="line"/>
    </contour>
  </outline>
</glyph>
<glyph name="M" format="1">
  <advance width="1363.968"/>
  <unicode hex="004D"/>
  <outline>
    <contour>
      <point x="1245" y="1475" type="line"/>
      <point x="1245" y="0" type="line"/>
      <point x="1085" y="0" type="line"/>
      <point x="1085" y="1282" type="line"/>
      <point x="1073" y="1282" type="line"/>
      <point x="772" y="0" type="line"/>
      <point x="588" y="0" type="line"/>
      <point x="281" y="1282" type="line"/>
      <point x="268" y="1282" type="line"/>
      <point x="268" y="0" type="line"/>
      <point x="121" y="0" type="line"/>
      <point x="121" y="1475" type="line"/>
      <point x="381" y="1475" type="line"/>
      <point x="680" y="211" type="line"/>
      <point x="690" y="211" type="line"/>
      <point x="987" y="1475" type="line"/>
    </contour>
  </outline>
</glyph>
<glyph name="P" format="1">
  <advance width="923.648"/>
  <unicode hex="0050"/>
  <outline>
    <contour>
      <point x="424" y="1475" type="line" smooth="yes"/>
      <point x="633.701492537" y="1475.0"/>
      <point x="870.0" y="1255.95522388"/>
      <point x="870" y="1047" type="qcurve" smooth="yes"/>
      <point x="870.0" y="834.313432836"/>
      <point x="634.179104478" y="606.0"/>
      <point x="420" y="606" type="qcurve" smooth="yes"/>
      <point x="291" y="606" type="line"/>
      <point x="291" y="0" type="line"/>
      <point x="121" y="0" type="line"/>
      <point x="121" y="1475" type="line"/>
    </contour>
    <contour>
      <point x="436" y="735" type="line" smooth="yes"/>
      <point x="568.835820896" y="735.0"/>
      <point x="707.0" y="890.746268657"/>
      <point x="707" y="1040" type="qcurve" smooth="yes"/>
      <point x="707.0" y="1188.50746269"/>
      <point x="567.313432836" y="1348.0"/>
      <point x="430" y="1348" type="qcurve" smooth="yes"/>
      <point x="289" y="1348" type="line"/>
      <point x="289" y="735" type="line"/>
    </contour>
  </outline>
</glyph>
<glyph name="S" format="1">
  <advance width="925.696"/>
  <unicode hex="0053"/>
  <outline>
    <contour>
      <point x="512" y="840" type="qcurve" smooth="yes"/>
      <point x="703.044776119" y="757.164179104"/>
      <point x="858.0" y="546.910447761"/>
      <point x="858" y="379" type="qcurve" smooth="yes"/>
      <point x="858.0" y="184.970149254"/>
      <point x="634.462686567" y="-23.0"/>
      <point x="477" y="-23" type="qcurve" smooth="yes"/>
      <point x="318.044776119" y="-23.0"/>
      <point x="119.71641791" y="140.582089552"/>
      <point x="63" y="307" type="qcurve"/>
      <point x="184" y="393" type="line"/>
      <point x="230.268656716" y="246.731343284"/>
      <point x="377.268656716" y="111.0"/>
      <point x="481" y="111" type="qcurve" smooth="yes"/>
      <point x="574.28358209" y="111.0"/>
      <point x="700.0" y="247.089552239"/>
      <point x="700" y="365" type="qcurve" smooth="yes"/>
      <point x="700.0" y="473.208955224"/>
      <point x="585.492537313" y="618.328358209"/>
      <point x="434" y="684" type="qcurve" smooth="yes"/>
      <point x="251.910447761" y="761.611940299"/>
      <point x="96.0" y="961.074626866"/>
      <point x="96" y="1126" type="qcurve" smooth="yes"/>
      <point x="96.0" y="1276.0"/>
      <point x="287.805970149" y="1497.0"/>
      <point x="449" y="1497" type="qcurve" smooth="yes"/>
      <point x="590.791044776" y="1497.0"/>
      <point x="772.52238806" y="1353.55223881"/>
      <point x="827" y="1214" type="qcurve"/>
      <point x="707" y="1128" type="line"/>
      <point x="659.23880597" y="1245.91044776"/>
      <point x="537.791044776" y="1364.0"/>
      <point x="446" y="1364" type="qcurve" smooth="yes"/>
      <point x="349.731343284" y="1364.0"/>
      <point x="254.0" y="1223.08955224"/>
      <point x="254" y="1141" type="qcurve" smooth="yes"/>
      <point x="254.0" y="1038.76119403"/>
      <point x="362.0" y="904.179104478"/>
    </contour>
  </outline>
</glyph>
<glyph name="T" format="1">
  <advance width="931.84"/>
  <unicode hex="0054"/>
  <outline>
    <contour>
      <point x="897" y="1475" type="line"/>
      <point x="897" y="1339" type="line"/>
      <point x="549" y="1339" type="line"/>
      <point x="549" y="0" type="line"/>
      <point x="381" y="0" type="line"/>
      <point x="381" y="1339" type="line"/>
      <point x="33" y="1339" type="line"/>
      <point x="33" y="1475" type="line"/>
    </contour>
  </outline>
</glyph>
<glyph name="U" format="1">
  <advance width="1011.712"/>
  <unicode hex="0055"/>
  <outline>
    <contour>
      <point x="897" y="1475" type="line"/>
      <point x="897" y="457" type="line" smooth="yes"/>
      <point x="897.0" y="203.268656716"/>
      <point x="679.880597015" y="-25.0"/>
      <point x="506" y="-25" type="qcurve" smooth="yes"/>
      <point x="331.373134328" y="-25.0"/>
      <point x="113.0" y="203.776119403"/>
      <point x="113" y="459" type="qcurve" smooth="yes"/>
      <point x="113" y="1475" type="line"/>
      <point x="285" y="1475" type="line"/>
      <point x="285" y="440" type="line" smooth="yes"/>
      <point x="285.0" y="267.611940299"/>
      <point x="409.76119403" y="106.0"/>
      <point x="512" y="106" type="qcurve" smooth="yes"/>
      <point x="612.746268657" y="106.0"/>
      <point x="735.0" y="263.611940299"/>
      <point x="735" y="436" type="qcurve" smooth="yes"/>
      <point x="735" y="1475" type="line"/>
    </contour>
  </outline>
</glyph>
<glyph name="V" format="1">
  <advance width="997.376"/>
  <unicode hex="0056"/>
  <outline>
    <contour>
      <point x="803" y="1475" type="line"/>
      <point x="973" y="1475" type="line"/>
      <point x="606" y="-12" type="line"/>
      <point x="401" y="-12" type="line"/>
      <point x="37" y="1475" type="line"/>
      <point x="215" y="1475" type="line"/>
      <point x="504" y="203" type="line"/>
      <point x="514" y="203" type="line"/>
    </contour>
  </outline>
</glyph>
<glyph name="bracketleft" format="1">
  <advance width="581.632"/>
  <unicode hex="005B"/>
  <outline>
    <contour>
      <point x="543" y="-78" type="line"/>
      <point x="543" y="-164" type="line"/>
      <point x="123" y="-182" type="line"/>
      <point x="123" y="1493" type="line"/>
      <point x="543" y="1475" type="line"/>
      <point x="543" y="1389" type="line"/>
      <point x="264" y="1403" type="line"/>
      <point x="264" y="-92" type="line"/>
    </contour>
  </outline>
</glyph>
<glyph name="backslash" format="1">
  <advance width="638.976"/>
  <unicode hex="005C"/>
  <outline>
    <contour>
      <point x="162" y="1505" type="line"/>
      <point x="662" y="-195" type="line"/>
      <point x="524" y="-195" type="line"/>
      <point x="23" y="1505" type="line"/>
    </contour>
  </outline>
</glyph>
<glyph name="asciicircum" format="1">
  <advance width="829.44"/>
  <unicode hex="005E"/>
  <outline>
    <contour>
      <point x="489" y="1483" type="line"/>
      <point x="760" y="932" type="line"/>
      <point x="653" y="932" type="line"/>
      <point x="416" y="1323" type="line"/>
      <point x="176" y="932" type="line"/>
      <point x="70" y="932" type="line"/>
      <point x="340" y="1483" type="line"/>
    </contour>
  </outline>
</glyph>
<glyph name="a" format="1">
  <advance width="806.912"/>
  <unicode hex="0061"/>
  <outline>
    <contour>
      <point x="774" y="78" type="qcurve"/>
      <point x="774" y="-8" type="line"/>
      <point x="676.23880597" y="-8.0"/>
      <point x="558.910447761" y="83.6119402985"/>
      <point x="541" y="156" type="qcurve"/>
      <point x="532" y="156" type="line"/>
      <point x="490.955223881" y="88.8358208955"/>
      <point x="366.074626866" y="-14.0"/>
      <point x="281" y="-14" type="qcurve" smooth="yes"/>
      <point x="178.014925373" y="-14.0"/>
      <point x="45.0" y="130.149253731"/>
      <point x="45" y="260" type="qcurve" smooth="yes"/>
      <point x="45.0" y="410.0"/>
      <point x="286.47761194" y="615.358208955"/>
      <point x="532" y="637" type="qcurve"/>
      <point x="532" y="778" type="line" smooth="yes"/>
      <point x="532.0" y="868.298507463"/>
      <point x="466.671641791" y="956.0"/>
      <point x="401" y="956" type="qcurve" smooth="yes"/>
      <point x="342.044776119" y="956.0"/>
      <point x="225.134328358" y="910.776119403"/>
      <point x="152" y="866" type="qcurve"/>
      <point x="104" y="971" type="line"/>
      <point x="179.373134328" y="1016.52238806"/>
      <point x="344.746268657" y="1077.0"/>
      <point x="444" y="1077" type="qcurve" smooth="yes"/>
      <point x="572.358208955" y="1077.0"/>
      <point x="690.0" y="937.492537313"/>
      <point x="690" y="786" type="qcurve" smooth="yes"/>
      <point x="690" y="205" type="line" smooth="yes"/>
      <point x="690.0" y="145.298507463"/>
      <point x="729.970149254" y="80.9850746269"/>
    </contour>
    <contour>
      <point x="348" y="94" type="qcurve" smooth="yes"/>
      <point x="398.746268657" y="94.0"/>
      <point x="493.940298507" y="166.119402985"/>
      <point x="532" y="240" type="qcurve"/>
      <point x="532" y="557" type="line"/>
      <point x="352.149253731" y="536.850746269"/>
      <point x="199.0" y="378.253731343"/>
      <point x="199" y="279" type="qcurve" smooth="yes"/>
      <point x="199.0" y="193.179104478"/>
      <point x="280.835820896" y="94.0"/>
    </contour>
  </outline>
</glyph>
<glyph name="c" format="1">
  <advance width="743.424"/>
  <unicode hex="0063"/>
  <outline>
    <contour>
      <point x="569" y="311" type="qcurve"/>
      <point x="698" y="279" type="line"/>
      <point x="671.134328358" y="143.925373134"/>
      <point x="522.373134328" y="-20.0"/>
      <point x="397" y="-20" type="qcurve" smooth="yes"/>
      <point x="242.52238806" y="-20.0"/>
      <point x="63.0" y="250.373134328"/>
      <point x="63" y="475" type="qcurve" smooth="yes"/>
      <point x="63" y="588" type="line" smooth="yes"/>
      <point x="63.0" y="809.641791045"/>
      <point x="249.23880597" y="1087.0"/>
      <point x="397" y="1087" type="qcurve" smooth="yes"/>
      <point x="529.835820896" y="1087.0"/>
      <point x="670.119402985" y="911.850746269"/>
      <point x="694" y="782" type="qcurve"/>
      <point x="559" y="750" type="line"/>
      <point x="537.358208955" y="853.731343284"/>
      <point x="464.164179104" y="971.0"/>
      <point x="397" y="971" type="qcurve" smooth="yes"/>
      <point x="316.402985075" y="971.0"/>
      <point x="221.0" y="769.402985075"/>
      <point x="221" y="600" type="qcurve" smooth="yes"/>
      <point x="221" y="469" type="line" smooth="yes"/>
      <point x="221.0" y="299.597014925"/>
      <point x="320.179104478" y="94.0"/>
      <point x="406" y="94" type="qcurve" smooth="yes"/>
      <point x="464.955223881" y="94.0"/>
      <point x="548.104477612" y="205.776119403"/>
    </contour>
  </outline>
</glyph>
<glyph name="d" format="1">
  <advance width="854.016"/>
  <unicode hex="0064"/>
  <outline>
    <contour>
      <point x="754" y="1556" type="line"/>
      <point x="754" y="27" type="line"/>
      <point x="592" y="-18" type="line"/>
      <point x="592" y="197" type="line"/>
      <point x="584" y="197" type="line"/>
      <point x="536.23880597" y="105.208955224"/>
      <point x="418.089552239" y="-18.0"/>
      <point x="336" y="-18" type="qcurve" smooth="yes"/>
      <point x="222.567164179" y="-18.0"/>
      <point x="63.0" y="243.791044776"/>
      <point x="63" y="502" type="qcurve" smooth="yes"/>
      <point x="63" y="565" type="line" smooth="yes"/>
      <point x="63.0" y="820.223880597"/>
      <point x="230.298507463" y="1085.0"/>
      <point x="340" y="1085" type="qcurve" smooth="yes"/>
      <point x="417.611940299" y="1085.0"/>
      <point x="539.223880597" y="964.074626866"/>
      <point x="584" y="879" type="qcurve"/>
      <point x="592" y="879" type="line"/>
      <point x="592" y="1511" type="line"/>
    </contour>
    <contour>
      <point x="399" y="100" type="qcurve" smooth="yes"/>
      <point x="481.835820896" y="100.0"/>
      <point x="602.0" y="349.164179104"/>
      <point x="602" y="532" type="qcurve" smooth="yes"/>
      <point x="602.0" y="715.582089552"/>
      <point x="482.313432836" y="967.0"/>
      <point x="395" y="967" type="qcurve" smooth="yes"/>
      <point x="320.373134328" y="967.0"/>
      <point x="221.0" y="752.910447761"/>
      <point x="221" y="535" type="qcurve" smooth="yes"/>
      <point x="221.0" y="306.641791045"/>
      <point x="324.373134328" y="100.0"/>
    </contour>
  </outline>
</glyph>
<glyph name="e" format="1">
  <advance width="780.288"/>
  <unicode hex="0065"/>
  <outline>
    <contour>
      <point x="719" y="541" type="qcurve" smooth="yes"/>
      <point x="719" y="498" type="line"/>
      <point x="215" y="498" type="line"/>
      <point x="215" y="465" type="line" smooth="yes"/>
      <point x="215.0" y="288.880597015"/>
      <point x="336.776119403" y="104.0"/>
      <point x="442" y="104" type="qcurve" smooth="yes"/>
      <point x="503.194029851" y="104.0"/>
      <point x="617.76119403" y="160.253731343"/>
      <point x="670" y="211" type="qcurve"/>
      <point x="719" y="109" type="line"/>
      <point x="657.805970149" y="52.2835820896"/>
      <point x="511.791044776" y="-18.0"/>
      <point x="420" y="-18" type="qcurve" smooth="yes"/>
      <point x="258.059701493" y="-18.0"/>
      <point x="63.0" y="238.432835821"/>
      <point x="63" y="475" type="qcurve" smooth="yes"/>
      <point x="63" y="588" type="line" smooth="yes"/>
      <point x="63.0" y="814.119402985"/>
      <point x="246.76119403" y="1087.0"/>
      <point x="399" y="1087" type="qcurve" smooth="yes"/>
      <point x="550.492537313" y="1087.0"/>
      <point x="719.0" y="788.014925373"/>
    </contour>
    <contour>
      <point x="215" y="584" type="line"/>
      <point x="569" y="584" type="line"/>
      <point x="566.014925373" y="765.343283582"/>
      <point x="475.358208955" y="979.0"/>
      <point x="397" y="979" type="qcurve" smooth="yes"/>
      <point x="310.432835821" y="979.0"/>
      <point x="215.0" y="772.089552239"/>
      <point x="215" y="590" type="qcurve" smooth="yes"/>
    </contour>
  </outline>
</glyph>
<glyph name="m" format="1">
  <advance width="1269.76"/>
  <unicode hex="006D"/>
  <outline>
    <contour>
      <point x="1174" y="854" type="qcurve" smooth="yes"/>
      <point x="1174" y="0" type="line"/>
      <point x="1016" y="0" type="line"/>
      <point x="1016" y="819" type="line" smooth="yes"/>
      <point x="1016.0" y="884.671641791"/>
      <point x="971.014925373" y="952.0"/>
      <point x="924" y="952" type="qcurve" smooth="yes"/>
      <point x="874.746268657" y="952.0"/>
      <point x="767.0" y="860.268656716"/>
      <point x="717" y="764" type="qcurve"/>
      <point x="717" y="0" type="line"/>
      <point x="559" y="0" type="line"/>
      <point x="559" y="819" type="line" smooth="yes"/>
      <point x="559.0" y="884.671641791"/>
      <point x="514.014925373" y="952.0"/>
      <point x="467" y="952" type="qcurve" smooth="yes"/>
      <point x="416.253731343" y="952.0"/>
      <point x="310.746268657" y="860.268656716"/>
      <point x="260" y="764" type="qcurve"/>
      <point x="260" y="0" type="line"/>
      <point x="100" y="0" type="line"/>
      <point x="100" y="1040" type="line"/>
      <point x="260" y="1085" type="line"/>
      <point x="260" y="862" type="line"/>
      <point x="266" y="862" type="line"/>
      <point x="331.671641791" y="962.746268657"/>
      <point x="460.164179104" y="1077.0"/>
      <point x="543" y="1077" type="qcurve" smooth="yes"/>
      <point x="628.074626866" y="1077.0"/>
      <point x="717.0" y="964.298507463"/>
      <point x="717" y="874" type="qcurve" smooth="yes"/>
      <point x="717" y="862" type="line"/>
      <point x="723" y="862" type="line"/>
      <point x="788.671641791" y="962.746268657"/>
      <point x="916.910447761" y="1077.0"/>
      <point x="999" y="1077" type="qcurve" smooth="yes"/>
      <point x="1087.80597015" y="1077.0"/>
      <point x="1174.0" y="954.746268657"/>
    </contour>
  </outline>
</glyph>
<glyph name="o" format="1">
  <advance width="821.248"/>
  <unicode hex="006F"/>
  <outline>
    <contour>
      <point x="760" y="578" type="qcurve" smooth="yes"/>
      <point x="760" y="492" type="line" smooth="yes"/>
      <point x="760.0" y="265.134328358"/>
      <point x="571.940298507" y="-20.0"/>
      <point x="410" y="-20" type="qcurve" smooth="yes"/>
      <point x="249.552238806" y="-20.0"/>
      <point x="63.0" y="265.134328358"/>
      <point x="63" y="492" type="qcurve" smooth="yes"/>
      <point x="63" y="578" type="line" smooth="yes"/>
      <point x="63.0" y="802.626865672"/>
      <point x="252.059701493" y="1087.0"/>
      <point x="414" y="1087" type="qcurve" smooth="yes"/>
      <point x="574.447761194" y="1087.0"/>
      <point x="760.0" y="802.626865672"/>
    </contour>
    <contour>
      <point x="414" y="90" type="qcurve" smooth="yes"/>
      <point x="500.567164179" y="90.0"/>
      <point x="600.0" y="308.104477612"/>
      <point x="600" y="479" type="qcurve" smooth="yes"/>
      <point x="600" y="588" type="line" smooth="yes"/>
      <point x="600.0" y="758.895522388"/>
      <point x="498.059701493" y="977.0"/>
      <point x="410" y="977" type="qcurve" smooth="yes"/>
      <point x="321.194029851" y="977.0"/>
      <point x="221.0" y="758.895522388"/>
      <point x="221" y="588" type="qcurve" smooth="yes"/>
      <point x="221" y="479" type="line" smooth="yes"/>
      <point x="221.0" y="308.104477612"/>
      <point x="325.194029851" y="90.0"/>
    </contour>
  </outline>
</glyph>
<glyph name="r" format="1">
  <advance width="620.544"/>
  <unicode hex="0072"/>
  <outline>
    <contour>
      <point x="602" y="1085" type="qcurve"/>
      <point x="602" y="905" type="line"/>
      <point x="495.28358209" y="880.373134328"/>
      <point x="326.179104478" y="711.432835821"/>
      <point x="262" y="598" type="qcurve"/>
      <point x="262" y="0" type="line"/>
      <point x="100" y="0" type="line"/>
      <point x="100" y="1040" type="line"/>
      <point x="262" y="1085" type="line"/>
      <point x="262" y="713" type="line"/>
      <point x="272" y="713" type="line"/>
      <point x="353.343283582" y="877.925373134"/>
      <point x="513.194029851" y="1067.08955224"/>
    </contour>
  </outline>
</glyph>
<glyph name="s" format="1">
  <advance width="684.032"/>
  <unicode hex="0073"/>
  <outline>
    <contour>
      <point x="377" y="618" type="qcurve" smooth="yes"/>
      <point x="511.328358209" y="550.835820896"/>
      <point x="631.0" y="397.656716418"/>
      <point x="631" y="279" type="qcurve" smooth="yes"/>
      <point x="631.0" y="136.462686567"/>
      <point x="462.895522388" y="-18.0"/>
      <point x="342" y="-18" type="qcurve" smooth="yes"/>
      <point x="239.76119403" y="-18.0"/>
      <point x="88.4925373134" y="78.1492537313"/>
      <point x="37" y="158" type="qcurve"/>
      <point x="129" y="248" type="line"/>
      <point x="178.253731343" y="176.358208955"/>
      <point x="284.805970149" y="98.0"/>
      <point x="346" y="98" type="qcurve" smooth="yes"/>
      <point x="413.164179104" y="98.0"/>
      <point x="496.0" y="189.850746269"/>
      <point x="496" y="260" type="qcurve" smooth="yes"/>
      <point x="496.0" y="333.134328358"/>
      <point x="422.462686567" y="426.014925373"/>
      <point x="315" y="479" type="qcurve" smooth="yes"/>
      <point x="186.641791045" y="543.179104478"/>
      <point x="66.0" y="691.059701493"/>
      <point x="66" y="803" type="qcurve" smooth="yes"/>
      <point x="66.0" y="929.865671642"/>
      <point x="224.089552239" y="1083.0"/>
      <point x="342" y="1083" type="qcurve" smooth="yes"/>
      <point x="429.313432836" y="1083.0"/>
      <point x="562.0" y="1006.14925373"/>
      <point x="612" y="936" type="qcurve"/>
      <point x="522" y="844" type="line"/>
      <point x="477.970149254" y="908.179104478"/>
      <point x="390.23880597" y="969.0"/>
      <point x="338" y="969" type="qcurve" smooth="yes"/>
      <point x="273.820895522" y="969.0"/>
      <point x="203.0" y="882.194029851"/>
      <point x="203" y="821" type="qcurve" smooth="yes"/>
      <point x="203.0" y="755.328358209"/>
      <point x="283.71641791" y="664.268656716"/>
    </contour>
  </outline>
</glyph>
<glyph name="t" format="1">
  <advance width="595.968"/>
  <unicode hex="0074"/>
  <outline>
    <contour>
      <point x="563" y="168" type="qcurve"/>
      <point x="563" y="51" type="line"/>
      <point x="510.014925373" y="17.4179104478"/>
      <point x="415.0" y="-14.0"/>
      <point x="365" y="-14" type="qcurve" smooth="yes"/>
      <point x="274.701492537" y="-14.0"/>
      <point x="168.0" y="82.552238806"/>
      <point x="168" y="193" type="qcurve" smooth="yes"/>
      <point x="168" y="944" type="line"/>
      <point x="23" y="944" type="line"/>
      <point x="23" y="1059" type="line"/>
      <point x="168" y="1059" type="line"/>
      <point x="168" y="1413" type="line"/>
      <point x="328" y="1495" type="line"/>
      <point x="328" y="1059" type="line"/>
      <point x="528" y="1059" type="line"/>
      <point x="528" y="944" type="line"/>
      <point x="328" y="944" type="line"/>
      <point x="328" y="223" type="line" smooth="yes"/>
      <point x="328.0" y="164.791044776"/>
      <point x="379.462686567" y="113.0"/>
      <point x="422" y="113" type="qcurve" smooth="yes"/>
      <point x="452.597014925" y="113.0"/>
      <point x="518.970149254" y="137.402985075"/>
    </contour>
  </outline>
</glyph>
<glyph name="u" format="1">
  <advance width="829.44"/>
  <unicode hex="0075"/>
  <outline>
    <contour>
      <point x="727" y="1067" type="line"/>
      <point x="727" y="27" type="line"/>
      <point x="567" y="-18" type="line"/>
      <point x="567" y="203" type="line"/>
      <point x="559" y="203" type="line"/>
      <point x="491.835820896" y="103.746268657"/>
      <point x="358.328358209" y="-12.0"/>
      <point x="274" y="-12" type="qcurve" smooth="yes"/>
      <point x="185.940298507" y="-12.0"/>
      <point x="96.0" y="109.268656716"/>
      <point x="96" y="213" type="qcurve" smooth="yes"/>
      <point x="96" y="1067" type="line"/>
      <point x="258" y="1067" type="line"/>
      <point x="258" y="246" type="line" smooth="yes"/>
      <point x="258.0" y="178.835820896"/>
      <point x="305.492537313" y="115.0"/>
      <point x="354" y="115" type="qcurve" smooth="yes"/>
      <point x="404.746268657" y="115.0"/>
      <point x="515.507462687" y="207.208955224"/>
      <point x="567" y="299" type="qcurve"/>
      <point x="567" y="1067" type="line"/>
    </contour>
  </outline>
</glyph>
<glyph name="x" format="1">
  <advance width="802.816"/>
  <unicode hex="0078"/>
  <outline>
    <contour>
      <point x="487" y="547" type="line"/>
      <point x="764" y="0" type="line"/>
      <point x="590" y="0" type="line"/>
      <point x="393" y="410" type="line"/>
      <point x="190" y="0" type="line"/>
      <point x="39" y="0" type="line"/>
      <point x="315" y="539" type="line"/>
      <point x="49" y="1067" type="line"/>
      <point x="223" y="1067" type="line"/>
      <point x="410" y="674" type="line"/>
      <point x="604" y="1067" type="line"/>
      <point x="756" y="1067" type="line"/>
    </contour>
  </outline>
</glyph>
<glyph name="y" format="1">
  <advance width="780.288"/>
  <unicode hex="0079"/>
  <outline>
    <contour>
      <point x="590" y="1067" type="line"/>
      <point x="741" y="1067" type="line"/>
      <point x="444" y="-125" type="line" smooth="yes"/>
      <point x="407.432835821" y="-269.776119403"/>
      <point x="284.23880597" y="-389.0"/>
      <point x="182" y="-389" type="qcurve" smooth="yes"/>
      <point x="127.52238806" y="-389.0"/>
      <point x="59.5970149254" y="-370.179104478"/>
      <point x="29" y="-356" type="qcurve"/>
      <point x="29" y="-233" type="line"/>
      <point x="74" y="-233" type="line"/>
      <point x="87.4328358209" y="-262.104477612"/>
      <point x="131.462686567" y="-297.0"/>
      <point x="174" y="-297" type="qcurve" smooth="yes"/>
      <point x="213.552238806" y="-297.0"/>
      <point x="273.328358209" y="-238.208955224"/>
      <point x="289" y="-180" type="qcurve" smooth="yes"/>
      <point x="319" y="-68" type="line"/>
      <point x="35" y="1067" type="line"/>
      <point x="197" y="1067" type="line"/>
      <point x="393" y="145" type="line"/>
    </contour>
  </outline>
</glyph>
<glyph name="z" format="1">
  <advance width="696.32"/>
  <unicode hex="007A"/>
  <outline>
    <contour>
      <point x="649" y="117" type="line"/>
      <point x="649" y="0" type="line"/>
      <point x="43" y="0" type="line"/>
      <point x="43" y="100" type="line"/>
      <point x="475" y="942" type="line"/>
      <point x="68" y="942" type="line"/>
      <point x="68" y="1059" type="line"/>
      <point x="649" y="1059" type="line"/>
      <point x="649" y="956" type="line"/>
      <point x="215" y="117" type="line"/>
    </contour>
  </outline>
</glyph>
<glyph name="braceleft" format="1">
  <advance width="647.168"/>
  <unicode hex="007B"/>
  <outline>
    <contour>
      <point x="596" y="-78" type="line"/>
      <point x="596" y="-164" type="line"/>
      <point x="453" y="-164" type="line" smooth="yes"/>
      <point x="335.089552239" y="-164.0"/>
      <point x="215.0" y="-36.3582089552"/>
      <point x="215" y="92" type="qcurve" smooth="yes"/>
      <point x="215.0" y="160.656716418"/>
      <point x="246.0" y="341.582089552"/>
      <point x="246" y="408" type="qcurve" smooth="yes"/>
      <point x="246.0" y="516.208955224"/>
      <point x="123.298507463" y="610.0"/>
      <point x="33" y="610" type="qcurve"/>
      <point x="33" y="700" type="line"/>
      <point x="123.298507463" y="700.0"/>
      <point x="246.0" y="794.791044776"/>
      <point x="246" y="903" type="qcurve" smooth="yes"/>
      <point x="246.0" y="968.671641791"/>
      <point x="215.0" y="1149.59701493"/>
      <point x="215" y="1219" type="qcurve" smooth="yes"/>
      <point x="215.0" y="1347.35820896"/>
      <point x="335.089552239" y="1475.0"/>
      <point x="453" y="1475" type="qcurve" smooth="yes"/>
      <point x="596" y="1475" type="line"/>
      <point x="596" y="1389" type="line"/>
      <point x="502" y="1389" type="line" smooth="yes"/>
      <point x="428.119402985" y="1389.0"/>
      <point x="358.0" y="1306.58208955"/>
      <point x="358" y="1223" type="qcurve" smooth="yes"/>
      <point x="358.0" y="1161.80597015"/>
      <point x="389.0" y="990.373134328"/>
      <point x="389" y="915" type="qcurve" smooth="yes"/>
      <point x="389.0" y="797.835820896"/>
      <point x="282.164179104" y="692.358208955"/>
      <point x="215" y="664" type="qcurve"/>
      <point x="215" y="647" type="line"/>
      <point x="282.164179104" y="617.895522388"/>
      <point x="389.0" y="512.910447761"/>
      <point x="389" y="395" type="qcurve" smooth="yes"/>
      <point x="389.0" y="320.373134328"/>
      <point x="358.0" y="149.194029851"/>
      <point x="358" y="88" type="qcurve" smooth="yes"/>
      <point x="358.0" y="3.67164179104"/>
      <point x="428.119402985" y="-78.0"/>
      <point x="502" y="-78" type="qcurve" smooth="yes"/>
    </contour>
  </outline>
</glyph>
<glyph name="exclamdown" format="1">
  <advance width="425.984"/>
  <unicode hex="00A1"/>
  <outline>
    <contour>
      <point x="213" y="1489" type="qcurve" smooth="yes"/>
      <point x="257.029850746" y="1489.0"/>
      <point x="315.0" y="1430.7761194"/>
      <point x="315" y="1386" type="qcurve" smooth="yes"/>
      <point x="315.0" y="1341.97014925"/>
      <point x="257.029850746" y="1284.0"/>
      <point x="213" y="1284" type="qcurve" smooth="yes"/>
      <point x="168.970149254" y="1284.0"/>
      <point x="111.0" y="1341.97014925"/>
      <point x="111" y="1386" type="qcurve" smooth="yes"/>
      <point x="111.0" y="1430.7761194"/>
      <point x="168.970149254" y="1489.0"/>
    </contour>
    <contour>
      <point x="256" y="1077" type="line"/>
      <point x="309" y="0" type="line"/>
      <point x="119" y="0" type="line"/>
      <point x="170" y="1077" type="line"/>
    </contour>
  </outline>
</glyph>
<glyph name="cent" format="1">
  <advance width="753.664"/>
  <unicode hex="00A2"/>
  <outline>
    <contour>
      <point x="575" y="311" type="qcurve"/>
      <point x="698" y="279" type="line"/>
      <point x="671.134328358" y="143.925373134"/>
      <point x="522.373134328" y="-20.0"/>
      <point x="397" y="-20" type="qcurve" smooth="yes"/>
      <point x="363.417910448" y="-20.0"/>
      <point x="303.104477612" y="-7.4328358209"/>
      <point x="274" y="6" type="qcurve"/>
      <point x="205" y="-195" type="line"/>
      <point x="123" y="-195" type="line"/>
      <point x="209" y="51" type="line"/>
      <point x="140.343283582" y="110.701492537"/>
      <point x="63.0" y="331.71641791"/>
      <point x="63" y="475" type="qcurve" smooth="yes"/>
      <point x="63" y="602" type="line" smooth="yes"/>
      <point x="63.0" y="825.134328358"/>
      <point x="248.731343284" y="1087.0"/>
      <point x="395" y="1087" type="qcurve" smooth="yes"/>
      <point x="438.28358209" y="1087.0"/>
      <point x="513.895522388" y="1066.91044776"/>
      <point x="543" y="1049" type="qcurve"/>
      <point x="614" y="1262" type="line"/>
      <point x="696" y="1262" type="line"/>
      <point x="324" y="121" type="line"/>
      <point x="341.910447761" y="105.328358209"/>
      <point x="384.358208955" y="92.0"/>
      <point x="406" y="92" type="qcurve" smooth="yes"/>
      <point x="466.447761194" y="92.0"/>
      <point x="554.104477612" y="202.791044776"/>
    </contour>
    <contour>
      <point x="270" y="186" type="qcurve"/>
      <point x="500" y="930" type="line"/>
      <point x="479.850746269" y="953.134328358"/>
      <point x="425.089552239" y="975.0"/>
      <point x="393" y="975" type="qcurve" smooth="yes"/>
      <point x="316.880597015" y="975.0"/>
      <point x="213.0" y="786.626865672"/>
      <point x="213" y="612" type="qcurve" smooth="yes"/>
      <point x="213" y="475" type="line" smooth="yes"/>
      <point x="213.0" y="378.731343284"/>
      <point x="242.388059701" y="233.76119403"/>
    </contour>
  </outline>
</glyph>
<glyph name="section" format="1">
  <advance width="929.792"/>
  <unicode hex="00A7"/>
  <outline>
    <contour>
      <point x="528" y="1038" type="qcurve" smooth="yes"/>
      <point x="702.626865672" y="973.820895522"/>
      <point x="874.0" y="827.686567164"/>
      <point x="874" y="715" type="qcurve" smooth="yes"/>
      <point x="874.0" y="609.029850746"/>
      <point x="724.895522388" y="473.985074627"/>
      <point x="604" y="471" type="qcurve"/>
      <point x="604" y="461" type="line"/>
      <point x="679.373134328" y="427.417910448"/>
      <point x="782.0" y="311.776119403"/>
      <point x="782" y="217" type="qcurve" smooth="yes"/>
      <point x="782.0" y="110.28358209"/>
      <point x="622.552238806" y="-25.0"/>
      <point x="483" y="-25" type="qcurve" smooth="yes"/>
      <point x="380.76119403" y="-25.0"/>
      <point x="221.358208955" y="29.2537313433"/>
      <point x="143" y="80" type="qcurve"/>
      <point x="203" y="190" type="line"/>
      <point x="273.149253731" y="142.985074627"/>
      <point x="413.865671642" y="94.0"/>
      <point x="487" y="94" type="qcurve" smooth="yes"/>
      <point x="560.880597015" y="94.0"/>
      <point x="643.0" y="162.28358209"/>
      <point x="643" y="219" type="qcurve" smooth="yes"/>
      <point x="643.0" y="280.194029851"/>
      <point x="549.507462687" y="380.776119403"/>
      <point x="401" y="436" type="qcurve" smooth="yes"/>
      <point x="227.119402985" y="500.179104478"/>
      <point x="55.0" y="646.567164179"/>
      <point x="55" y="760" type="qcurve" smooth="yes"/>
      <point x="55.0" y="865.223880597"/>
      <point x="204.597014925" y="1000.26865672"/>
      <point x="324" y="1004" type="qcurve"/>
      <point x="324" y="1014" type="line"/>
      <point x="250.119402985" y="1047.58208955"/>
      <point x="147.0" y="1162.2238806"/>
      <point x="147" y="1257" type="qcurve" smooth="yes"/>
      <point x="147.0" y="1364.46268657"/>
      <point x="307.194029851" y="1499.0"/>
      <point x="446" y="1499" type="qcurve" smooth="yes"/>
      <point x="548.985074627" y="1499.0"/>
      <point x="708.388059701" y="1445.0"/>
      <point x="786" y="1395" type="qcurve"/>
      <point x="727" y="1284" type="line"/>
      <point x="658.343283582" y="1331.76119403"/>
      <point x="516.388059701" y="1380.0"/>
      <point x="444" y="1380" type="qcurve" smooth="yes"/>
      <point x="369.373134328" y="1380.0"/>
      <point x="285.0" y="1311.71641791"/>
      <point x="285" y="1255" type="qcurve" smooth="yes"/>
      <point x="285.0" y="1194.55223881"/>
      <point x="380.23880597" y="1093.2238806"/>
    </contour>
    <contour>
      <point x="569" y="541" type="qcurve" smooth="yes"/>
      <point x="638.402985075" y="541.0"/>
      <point x="737.0" y="616.865671642"/>
      <point x="737" y="690" type="qcurve" smooth="yes"/>
      <point x="737.0" y="745.223880597"/>
      <point x="657.71641791" y="849.985074627"/>
      <point x="551" y="897" type="qcurve" smooth="yes"/>
      <point x="503.23880597" y="917.149253731"/>
      <point x="411.253731343" y="934.0"/>
      <point x="362" y="934" type="qcurve" smooth="yes"/>
      <point x="291.850746269" y="934.0"/>
      <point x="193.0" y="857.880597015"/>
      <point x="193" y="784" type="qcurve" smooth="yes"/>
      <point x="193.0" y="729.52238806"/>
      <point x="272.28358209" y="625.014925373"/>
      <point x="379" y="578" type="qcurve" smooth="yes"/>
      <point x="426.014925373" y="557.850746269"/>
      <point x="519.0" y="541.0"/>
    </contour>
  </outline>
</glyph>
<glyph name="dieresis" format="1">
  <advance width="804.864"/>
  <unicode hex="00A8"/>
  <outline>
    <contour>
      <point x="330" y="1358" type="line"/>
      <point x="330" y="1186" type="line"/>
      <point x="182" y="1186" type="line"/>
      <point x="182" y="1358" type="line"/>
    </contour>
    <contour>
      <point x="623" y="1358" type="line"/>
      <point x="623" y="1186" type="line"/>
      <point x="475" y="1186" type="line"/>
      <point x="475" y="1358" type="line"/>
    </contour>
  </outline>
</glyph>
<glyph name="ordfeminine" format="1">
  <advance width="600.064"/>
  <unicode hex="00AA"/>
  <outline>
    <contour>
      <point x="547" y="940" type="qcurve"/>
      <point x="547" y="881" type="line"/>
      <point x="479.835820896" y="879.507462687"/>
      <point x="401.686567164" y="924.731343284"/>
      <point x="389" y="971" type="qcurve"/>
      <point x="387" y="971" type="line"/>
      <point x="351.925373134" y="924.731343284"/>
      <point x="268.253731343" y="877.0"/>
      <point x="219" y="877" type="qcurve" smooth="yes"/>
      <point x="154.820895522" y="877.0"/>
      <point x="63.0" y="958.895522388"/>
      <point x="63" y="1038" type="qcurve" smooth="yes"/>
      <point x="63.0" y="1125.31343284"/>
      <point x="221.537313433" y="1236.52238806"/>
      <point x="379" y="1241" type="qcurve"/>
      <point x="379" y="1296" type="line" smooth="yes"/>
      <point x="379.0" y="1345.25373134"/>
      <point x="342.044776119" y="1395.0"/>
      <point x="301" y="1395" type="qcurve" smooth="yes"/>
      <point x="261.447761194" y="1395.0"/>
      <point x="179.776119403" y="1368.6119403"/>
      <point x="135" y="1341" type="qcurve"/>
      <point x="100" y="1417" type="line"/>
      <point x="150.746268657" y="1444.6119403"/>
      <point x="262.328358209" y="1485.0"/>
      <point x="328" y="1485" type="qcurve" smooth="yes"/>
      <point x="414.567164179" y="1485.0"/>
      <point x="496.0" y="1399.7761194"/>
      <point x="496" y="1305" type="qcurve" smooth="yes"/>
      <point x="496" y="1006" type="line" smooth="yes"/>
      <point x="496.0" y="976.895522388"/>
      <point x="519.388059701" y="941.492537313"/>
    </contour>
    <contour>
      <point x="260" y="958" type="qcurve" smooth="yes"/>
      <point x="293.582089552" y="958.0"/>
      <point x="354.373134328" y="995.432835821"/>
      <point x="379" y="1032" type="qcurve"/>
      <point x="379" y="1182" type="line"/>
      <point x="270.044776119" y="1179.01492537"/>
      <point x="176.0" y="1100.49253731"/>
      <point x="176" y="1049" type="qcurve" smooth="yes"/>
      <point x="176.0" y="1005.71641791"/>
      <point x="223.432835821" y="958.0"/>
    </contour>
    <contour>
      <point x="528" y="772" type="line"/>
      <point x="528" y="692" type="line"/>
      <point x="72" y="692" type="line"/>
      <point x="72" y="772" type="line"/>
    </contour>
  </outline>
</glyph>
<glyph name="AE" format="1">
  <advance width="1503.232"/>
  <unicode hex="00C6"/>
  <outline>
    <contour>
      <point x="1450" y="135" type="line"/>
      <point x="1450" y="0" type="line"/>
      <point x="754" y="0" type="line"/>
      <point x="754" y="381" type="line"/>
      <point x="342" y="381" type="line"/>
      <point x="190" y="0" type="line"/>
      <point x="20" y="0" type="line"/>
      <point x="610" y="1475" type="line"/>
      <point x="1432" y="1475" type="line"/>
      <point x="1432" y="1339" type="line"/>
      <point x="922" y="1339" type="line"/>
      <point x="922" y="836" type="line"/>
      <point x="1333" y="836" type="line"/>
      <point x="1333" y="705" type="line"/>
      <point x="922" y="705" type="line"/>
      <point x="922" y="135" type="line"/>
    </contour>
    <contour>
      <point x="383" y="506" type="line"/>
      <point x="754" y="506" type="line"/>
      <point x="754" y="1339" type="line"/>
      <point x="717" y="1339" type="line"/>
    </contour>
  </outline>
</glyph>
<glyph name="Eth" format="1">
  <advance width="1050.624"/>
  <unicode hex="00D0"/>
  <outline>
    <contour>
      <point x="971" y="827" type="qcurve" smooth="yes"/>
      <point x="971" y="649" type="line" smooth="yes"/>
      <point x="971.0" y="337.059701493"/>
      <point x="703.567164179" y="0.0"/>
      <point x="467" y="0" type="qcurve" smooth="yes"/>
      <point x="172" y="0" type="line"/>
      <point x="172" y="705" type="line"/>
      <point x="39" y="705" type="line"/>
      <point x="39" y="834" type="line"/>
      <point x="172" y="834" type="line"/>
      <point x="172" y="1475" type="line"/>
      <point x="473" y="1475" type="line" smooth="yes"/>
      <point x="710.313432836" y="1475.0"/>
      <point x="971.0" y="1137.44776119"/>
    </contour>
    <contour>
      <point x="467" y="127" type="line" smooth="yes"/>
      <point x="625.955223881" y="127.0"/>
      <point x="801.0" y="383.910447761"/>
      <point x="801" y="616" type="qcurve" smooth="yes"/>
      <point x="801" y="854" type="line" smooth="yes"/>
      <point x="801.0" y="1089.07462687"/>
      <point x="627.417910448" y="1348.0"/>
      <point x="461" y="1348" type="qcurve" smooth="yes"/>
      <point x="344" y="1348" type="line"/>
      <point x="344" y="834" type="line"/>
      <point x="537" y="834" type="line"/>
      <point x="537" y="705" type="line"/>
      <point x="344" y="705" type="line"/>
      <point x="344" y="127" type="line"/>
    </contour>
  </outline>
</glyph>
<glyph name="multiply" format="1">
  <advance width="985.088"/>
  <unicode hex="00D7"/>
  <outline>
    <contour>
      <point x="580" y="725" type="line"/>
      <point x="868" y="440" type="line"/>
      <point x="778" y="348" type="line"/>
      <point x="492" y="639" type="line"/>
      <point x="205" y="348" type="line"/>
      <point x="115" y="440" type="line"/>
      <point x="403" y="725" type="line"/>
      <point x="115" y="1012" type="line"/>
      <point x="205" y="1102" type="line"/>
      <point x="492" y="811" type="line"/>
      <point x="778" y="1102" type="line"/>
      <point x="868" y="1012" type="line"/>
    </contour>
  </outline>
</glyph>
<glyph name="Oslash" format="1">
  <advance width="1005.568"/>
  <unicode hex="00D8"/>
  <outline>
    <contour>
      <point x="829" y="1673" type="line"/>
      <point x="932" y="1673" type="line"/>
      <point x="797" y="1346" type="line"/>
      <point x="861.179104478" y="1261.67164179"/>
      <point x="928.0" y="1001.91044776"/>
      <point x="928" y="834" type="qcurve" smooth="yes"/>
      <point x="928" y="643" type="line" smooth="yes"/>
      <point x="928.0" y="331.059701493"/>
      <point x="701.014925373" y="-25.0"/>
      <point x="504" y="-25" type="qcurve" smooth="yes"/>
      <point x="438.328358209" y="-25.0"/>
      <point x="323.029850746" y="18.9402985075"/>
      <point x="279" y="57" type="qcurve"/>
      <point x="176" y="-199" type="line"/>
      <point x="74" y="-199" type="line"/>
      <point x="209" y="129" type="line"/>
      <point x="146.313432836" y="213.328358209"/>
      <point x="78.0" y="471.597014925"/>
      <point x="78" y="641" type="qcurve" smooth="yes"/>
      <point x="78" y="831" type="line" smooth="yes"/>
      <point x="78.0" y="1142.94029851"/>
      <point x="305.492537313" y="1499.0"/>
      <point x="504" y="1499" type="qcurve" smooth="yes"/>
      <point x="568.179104478" y="1499.0"/>
      <point x="683.47761194" y="1456.55223881"/>
      <point x="729" y="1417" type="qcurve"/>
    </contour>
    <contour>
      <point x="504" y="98" type="qcurve" smooth="yes"/>
      <point x="633.850746269" y="98.0"/>
      <point x="758.0" y="388.835820896"/>
      <point x="758" y="606" type="qcurve" smooth="yes"/>
      <point x="758" y="815" type="line" smooth="yes"/>
      <point x="758.0" y="926.940298507"/>
      <point x="740.134328358" y="1103.6119403"/>
      <point x="717" y="1176" type="qcurve"/>
      <point x="334" y="199" type="line"/>
      <point x="363.104477612" y="151.23880597"/>
      <point x="450.268656716" y="98.0"/>
    </contour>
    <contour>
      <point x="289" y="299" type="qcurve"/>
      <point x="672" y="1276" type="line"/>
      <point x="641.402985075" y="1323.01492537"/>
      <point x="559.223880597" y="1376.0"/>
      <point x="504" y="1376" type="qcurve" smooth="yes"/>
      <point x="372.656716418" y="1376.0"/>
      <point x="248.0" y="1083.67164179"/>
      <point x="248" y="868" type="qcurve" smooth="yes"/>
      <point x="248" y="657" type="line" smooth="yes"/>
      <point x="248.0" y="550.28358209"/>
      <point x="267.358208955" y="364.671641791"/>
    </contour>
  </outline>
</glyph>
<glyph name="eth" format="1">
  <advance width="817.152"/>
  <unicode hex="00F0"/>
  <outline>
    <contour>
      <point x="758" y="596" type="qcurve" smooth="yes"/>
      <point x="758" y="496" type="line" smooth="yes"/>
      <point x="758.0" y="260.179104478"/>
      <point x="564.208955224" y="-20.0"/>
      <point x="406" y="-20" type="qcurve" smooth="yes"/>
      <point x="247.044776119" y="-20.0"/>
      <point x="63.0" y="260.179104478"/>
      <point x="63" y="496" type="qcurve" smooth="yes"/>
      <point x="63" y="569" type="line" smooth="yes"/>
      <point x="63.0" y="804.820895522"/>
      <point x="232.970149254" y="1081.0"/>
      <point x="377" y="1081" type="qcurve" smooth="yes"/>
      <point x="453.119402985" y="1081.0"/>
      <point x="562.925373134" y="970.074626866"/>
      <point x="598" y="885" type="qcurve"/>
      <point x="606" y="885" type="line"/>
      <point x="592.567164179" y="1005.89552239"/>
      <point x="496.149253731" y="1228.73134328"/>
      <point x="426" y="1325" type="qcurve"/>
      <point x="244" y="1196" type="line"/>
      <point x="244" y="1284" type="line"/>
      <point x="381" y="1382" type="line"/>
      <point x="353.388059701" y="1414.08955224"/>
      <point x="296.089552239" y="1477.3880597"/>
      <point x="264" y="1505" type="qcurve"/>
      <point x="387" y="1561" type="line"/>
      <point x="413.119402985" y="1534.88059701"/>
      <point x="465.880597015" y="1475.58208955"/>
      <point x="492" y="1442" type="qcurve"/>
      <point x="668" y="1561" type="line"/>
      <point x="668" y="1477" type="line"/>
      <point x="535" y="1384" type="line"/>
      <point x="626.044776119" y="1254.14925373"/>
      <point x="758.0" y="874.358208955"/>
    </contour>
    <contour>
      <point x="414" y="90" type="qcurve" smooth="yes"/>
      <point x="499.074626866" y="90.0"/>
      <point x="600.0" y="299.179104478"/>
      <point x="600" y="485" type="qcurve" smooth="yes"/>
      <point x="600" y="580" type="line" smooth="yes"/>
      <point x="600.0" y="767.313432836"/>
      <point x="496.567164179" y="977.0"/>
      <point x="410" y="977" type="qcurve" smooth="yes"/>
      <point x="322.686567164" y="977.0"/>
      <point x="221.0" y="767.313432836"/>
      <point x="221" y="580" type="qcurve" smooth="yes"/>
      <point x="221" y="485" type="line" smooth="yes"/>
      <point x="221.0" y="299.179104478"/>
      <point x="325.194029851" y="90.0"/>
    </contour>
  </outline>
</glyph>
<glyph name="oslash" format="1">
  <advance width="823.296"/>
  <unicode hex="00F8"/>
  <outline>
    <contour>
      <point x="664" y="1262" type="line"/>
      <point x="758" y="1262" type="line"/>
      <point x="641" y="981" type="line"/>
      <point x="697.71641791" y="912.343283582"/>
      <point x="760.0" y="706.358208955"/>
      <point x="760" y="578" type="qcurve" smooth="yes"/>
      <point x="760" y="492" type="line" smooth="yes"/>
      <point x="760.0" y="265.134328358"/>
      <point x="571.940298507" y="-20.0"/>
      <point x="410" y="-20" type="qcurve" smooth="yes"/>
      <point x="365.223880597" y="-20.0"/>
      <point x="285.074626866" y="6.37313432836"/>
      <point x="250" y="31" type="qcurve"/>
      <point x="160" y="-195" type="line"/>
      <point x="66" y="-195" type="line"/>
      <point x="182" y="88" type="line"/>
      <point x="123.791044776" y="155.164179104"/>
      <point x="63.0" y="359.910447761"/>
      <point x="63" y="492" type="qcurve" smooth="yes"/>
      <point x="63" y="578" type="line" smooth="yes"/>
      <point x="63.0" y="802.626865672"/>
      <point x="252.059701493" y="1087.0"/>
      <point x="414" y="1087" type="qcurve" smooth="yes"/>
      <point x="459.52238806" y="1087.0"/>
      <point x="540.910447761" y="1060.11940299"/>
      <point x="573" y="1034" type="qcurve"/>
    </contour>
    <contour>
      <point x="256" y="231" type="qcurve"/>
      <point x="526" y="913" type="line"/>
      <point x="503.611940299" y="945.089552239"/>
      <point x="446.567164179" y="979.0"/>
      <point x="410" y="979" type="qcurve" smooth="yes"/>
      <point x="321.194029851" y="979.0"/>
      <point x="221.0" y="761.880597015"/>
      <point x="221" y="588" type="qcurve" smooth="yes"/>
      <point x="221" y="485" type="line" smooth="yes"/>
      <point x="221.0" y="422.313432836"/>
      <point x="241.074626866" y="277.268656716"/>
    </contour>
    <contour>
      <point x="414" y="86" type="qcurve" smooth="yes"/>
      <point x="502.059701493" y="86.0"/>
      <point x="600.0" y="306.611940299"/>
      <point x="600" y="479" type="qcurve" smooth="yes"/>
      <point x="600" y="578" type="line" smooth="yes"/>
      <point x="600.0" y="654.119402985"/>
      <point x="582.671641791" y="788.23880597"/>
      <point x="567" y="836" type="qcurve"/>
      <point x="297" y="152" type="line"/>
      <point x="320.134328358" y="121.402985075"/>
      <point x="378.925373134" y="86.0"/>
    </contour>
  </outline>
</glyph>
<glyph name="thorn" format="1">
  <advance width="854.016"/>
  <unicode hex="00FE"/>
  <outline>
    <contour>
      <point x="791" y="565" type="qcurve" smooth="yes"/>
      <point x="791" y="504" type="line" smooth="yes"/>
      <point x="791.0" y="247.28358209"/>
      <point x="624.447761194" y="-18.0"/>
      <point x="514" y="-18" type="qcurve" smooth="yes"/>
      <point x="436.388059701" y="-18.0"/>
      <point x="314.776119403" y="100.925373134"/>
      <point x="270" y="186" type="qcurve"/>
      <point x="262" y="186" type="line"/>
      <point x="262" y="-385" type="line"/>
      <point x="100" y="-385" type="line"/>
      <point x="100" y="1511" type="line"/>
      <point x="262" y="1556" type="line"/>
      <point x="262" y="870" type="line"/>
      <point x="270" y="870" type="line"/>
      <point x="316.268656716" y="960.298507463"/>
      <point x="435.910447761" y="1085.0"/>
      <point x="518" y="1085" type="qcurve" smooth="yes"/>
      <point x="629.940298507" y="1085.0"/>
      <point x="791.0" y="823.208955224"/>
    </contour>
    <contour>
      <point x="461" y="100" type="qcurve" smooth="yes"/>
      <point x="534.134328358" y="100.0"/>
      <point x="631.0" y="314.089552239"/>
      <point x="631" y="532" type="qcurve" smooth="yes"/>
      <point x="631.0" y="760.358208955"/>
      <point x="529.626865672" y="967.0"/>
      <point x="455" y="967" type="qcurve" smooth="yes"/>
      <point x="373.656716418" y="967.0"/>
      <point x="252.0" y="715.582089552"/>
      <point x="252" y="532" type="qcurve" smooth="yes"/>
      <point x="252.0" y="350.656716418"/>
      <point x="373.686567164" y="100.0"/>
    </contour>
  </outline>
</glyph>
<glyph name="Lslash" format="1">
  <advance width="860.16"/>
  <unicode hex="0141"/>
  <outline>
    <contour>
      <point x="840" y="137" type="line"/>
      <point x="840" y="0" type="line"/>
      <point x="172" y="0" type="line"/>
      <point x="172" y="649" type="line"/>
      <point x="43" y="571" type="line"/>
      <point x="43" y="721" type="line"/>
      <point x="172" y="797" type="line"/>
      <point x="172" y="1475" type="line"/>
      <point x="344" y="1475" type="line"/>
      <point x="344" y="887" type="line"/>
      <point x="569" y="1016" type="line"/>
      <point x="569" y="866" type="line"/>
      <point x="344" y="737" type="line"/>
      <point x="344" y="137" type="line"/>
    </contour>
  </outline>
</glyph>
<glyph name="lslash" format="1">
  <advance width="534.528"/>
  <unicode hex="0142"/>
  <outline>
    <contour>
      <point x="494" y="946" type="line"/>
      <point x="494" y="805" type="line"/>
      <point x="350" y="725" type="line"/>
      <point x="350" y="0" type="line"/>
      <point x="184" y="0" type="line"/>
      <point x="184" y="653" type="line"/>
      <point x="43" y="575" type="line"/>
      <point x="43" y="719" type="line"/>
      <point x="184" y="795" type="line"/>
      <point x="184" y="1511" type="line"/>
      <point x="350" y="1556" type="line"/>
      <point x="350" y="868" type="line"/>
    </contour>
  </outline>
</glyph>
<glyph name="OE" format="1">
  <advance width="1452.032"/>
  <unicode hex="0152"/>
  <outline>
    <contour>
      <point x="1403" y="135" type="line"/>
      <point x="1403" y="0" type="line"/>
      <point x="573" y="0" type="line" smooth="yes"/>
      <point x="339.417910448" y="0.0"/>
      <point x="78.0" y="335.059701493"/>
      <point x="78" y="647" type="qcurve" smooth="yes"/>
      <point x="78" y="825" type="line" smooth="yes"/>
      <point x="78.0" y="1141.41791045"/>
      <point x="347.164179104" y="1475.0"/>
      <point x="580" y="1475" type="qcurve" smooth="yes"/>
      <point x="1382" y="1475" type="line"/>
      <point x="1382" y="1339" type="line"/>
      <point x="870" y="1339" type="line"/>
      <point x="870" y="836" type="line"/>
      <point x="1282" y="836" type="line"/>
      <point x="1282" y="705" type="line"/>
      <point x="870" y="705" type="line"/>
      <point x="870" y="135" type="line"/>
    </contour>
    <contour>
      <point x="586" y="125" type="qcurve" smooth="yes"/>
      <point x="705" y="125" type="line"/>
      <point x="705" y="1350" type="line"/>
      <point x="580" y="1350" type="line" smooth="yes"/>
      <point x="421.044776119" y="1350.0"/>
      <point x="244.0" y="1088.59701493"/>
      <point x="244" y="858" type="qcurve" smooth="yes"/>
      <point x="244" y="621" type="line" smooth="yes"/>
      <point x="244.0" y="386.671641791"/>
      <point x="421.074626866" y="125.0"/>
    </contour>
  </outline>
</glyph>
<glyph name="circumflex" format="1">
  <advance width="804.864"/>
  <unicode hex="02C6"/>
  <outline>
    <contour>
      <point x="469" y="1438" type="line"/>
      <point x="645" y="1178" type="line"/>
      <point x="565" y="1178" type="line"/>
      <point x="401" y="1337" type="line"/>
      <point x="240" y="1178" type="line"/>
      <point x="160" y="1178" type="line"/>
      <point x="336" y="1438" type="line"/>
    </contour>
  </outline>
</glyph>
<glyph name="caron" format="1">
  <advance width="804.864"/>
  <unicode hex="02C7"/>
  <outline>
    <contour>
      <point x="565" y="1446" type="line"/>
      <point x="645" y="1446" type="line"/>
      <point x="469" y="1186" type="line"/>
      <point x="336" y="1186" type="line"/>
      <point x="160" y="1446" type="line"/>
      <point x="240" y="1446" type="line"/>
      <point x="403" y="1286" type="line"/>
    </contour>
  </outline>
</glyph>
<glyph name="breve" format="1">
  <advance width="804.864"/>
  <unicode hex="02D8"/>
  <outline>
    <contour>
      <point x="563" y="1444" type="qcurve"/>
      <point x="635" y="1444" type="line"/>
      <point x="630.52238806" y="1321.6119403"/>
      <point x="513.447761194" y="1180.0"/>
      <point x="403" y="1180" type="qcurve" smooth="yes"/>
      <point x="291.805970149" y="1180.0"/>
      <point x="174.47761194" y="1321.6119403"/>
      <point x="170" y="1444" type="qcurve"/>
      <point x="244" y="1444" type="line"/>
      <point x="254.447761194" y="1362.65671642"/>
      <point x="335.835820896" y="1284.0"/>
      <point x="403" y="1284" type="qcurve" smooth="yes"/>
      <point x="469.417910448" y="1284.0"/>
      <point x="552.552238806" y="1362.65671642"/>
    </contour>
  </outline>
</glyph>
<glyph name="dotaccent" format="1">
  <advance width="804.864"/>
  <unicode hex="02D9"/>
  <outline>
    <contour>
      <point x="483" y="1358" type="line"/>
      <point x="483" y="1186" type="line"/>
      <point x="322" y="1186" type="line"/>
      <point x="322" y="1358" type="line"/>
    </contour>
  </outline>
</glyph>
<glyph name="ring" format="1">
  <advance width="804.864"/>
  <unicode hex="02DA"/>
  <outline>
    <contour>
      <point x="403" y="1477" type="qcurve" smooth="yes"/>
      <point x="472.402985075" y="1477.0"/>
      <point x="565.0" y="1388.67164179"/>
      <point x="565" y="1323" type="qcurve" smooth="yes"/>
      <point x="565.0" y="1258.82089552"/>
      <point x="472.402985075" y="1171.0"/>
      <point x="403" y="1171" type="qcurve" smooth="yes"/>
      <point x="331.358208955" y="1171.0"/>
      <point x="240.0" y="1258.82089552"/>
      <point x="240" y="1323" type="qcurve" smooth="yes"/>
      <point x="240.0" y="1388.67164179"/>
      <point x="331.358208955" y="1477.0"/>
    </contour>
    <contour>
      <point x="403" y="1229" type="qcurve" smooth="yes"/>
      <point x="441.805970149" y="1229.0"/>
      <point x="492.0" y="1286.94029851"/>
      <point x="492" y="1325" type="qcurve" smooth="yes"/>
      <point x="492.0" y="1363.05970149"/>
      <point x="441.805970149" y="1417.0"/>
      <point x="403" y="1417" type="qcurve" smooth="yes"/>
      <point x="364.940298507" y="1417.0"/>
      <point x="315.0" y="1363.05970149"/>
      <point x="315" y="1325" type="qcurve" smooth="yes"/>
      <point x="315.0" y="1286.94029851"/>
      <point x="364.940298507" y="1229.0"/>
    </contour>
  </outline>
</glyph>
<glyph name="tilde" format="1">
  <advance width="804.864"/>
  <unicode hex="02DC"/>
  <outline>
    <contour>
      <point x="582" y="1378" type="qcurve"/>
      <point x="659" y="1378" type="line"/>
      <point x="662.731343284" y="1280.23880597"/>
      <point x="594.149253731" y="1186.0"/>
      <point x="524" y="1186" type="qcurve" smooth="yes"/>
      <point x="453.850746269" y="1186.0"/>
      <point x="332.014925373" y="1272.0"/>
      <point x="285" y="1272" type="qcurve" smooth="yes"/>
      <point x="252.910447761" y="1272.0"/>
      <point x="223.0" y="1232.53731343"/>
      <point x="223" y="1190" type="qcurve"/>
      <point x="145" y="1190" type="line"/>
      <point x="142.014925373" y="1287.76119403"/>
      <point x="209.597014925" y="1382.0"/>
      <point x="279" y="1382" type="qcurve" smooth="yes"/>
      <point x="352.134328358" y="1382.0"/>
      <point x="472.47761194" y="1296.0"/>
      <point x="518" y="1296" type="qcurve" smooth="yes"/>
      <point x="550.089552239" y="1296.0"/>
      <point x="582.0" y="1336.95522388"/>
    </contour>
  </outline>
</glyph>
<glyph name="hungarumlaut" format="1">
  <advance width="804.864"/>
  <unicode hex="02DD"/>
  <outline>
    <contour>
      <point x="242" y="1438" type="line"/>
      <point x="422" y="1438" type="line"/>
      <point x="193" y="1186" type="line"/>
      <point x="100" y="1186" type="line"/>
    </contour>
    <contour>
      <point x="537" y="1438" type="line"/>
      <point x="715" y="1438" type="line"/>
      <point x="489" y="1186" type="line"/>
      <point x="395" y="1186" type="line"/>
    </contour>
  </outline>
</glyph>
<glyph name="endash" format="1">
  <advance width="811.008"/>
  <unicode hex="2013"/>
  <outline>
    <contour>
      <point x="754" y="645" type="line"/>
      <point x="754" y="512" type="line"/>
      <point x="59" y="512" type="line"/>
      <point x="59" y="645" type="line"/>
    </contour>
  </outline>
</glyph>
<glyph name="quoteright" format="1">
  <advance width="344.064"/>
  <unicode hex="2019"/>
  <unicode hex="02BC"/>
  <outline>
    <contour>
      <point x="127" y="1475" type="line"/>
      <point x="293" y="1475" type="line"/>
      <point x="141" y="1036" type="line"/>
      <point x="66" y="1036" type="line"/>
    </contour>
  </outline>
</glyph>
<glyph name="quotedblbase" format="1">
  <advance width="622.592"/>
  <unicode hex="201E"/>
  <outline>
    <contour>
      <point x="111" y="213" type="line"/>
      <point x="274" y="213" type="line"/>
      <point x="123" y="-225" type="line"/>
      <point x="51" y="-225" type="line"/>
    </contour>
    <contour>
      <point x="395" y="213" type="line"/>
      <point x="555" y="213" type="line"/>
      <point x="403" y="-225" type="line"/>
      <point x="332" y="-225" type="line"/>
    </contour>
  </outline>
</glyph>
<glyph name="dagger" format="1">
  <advance width="722.944"/>
  <unicode hex="2020"/>
  <outline>
    <contour>
      <point x="674" y="1083" type="line"/>
      <point x="674" y="942" type="line"/>
      <point x="403" y="981" type="line"/>
      <point x="442" y="705" type="line"/>
      <point x="391" y="0" type="line"/>
      <point x="332" y="0" type="line"/>
      <point x="281" y="705" type="line"/>
      <point x="319" y="981" type="line"/>
      <point x="47" y="942" type="line"/>
      <point x="47" y="1083" type="line"/>
      <point x="319" y="1042" type="line"/>
      <point x="281" y="1475" type="line"/>
      <point x="442" y="1475" type="line"/>
      <point x="403" y="1042" type="line"/>
    </contour>
  </outline>
</glyph>
<glyph name="daggerdbl" format="1">
  <advance width="765.952"/>
  <unicode hex="2021"/>
  <outline>
    <contour>
      <point x="694" y="492" type="line"/>
      <point x="694" y="350" type="line"/>
      <point x="422" y="391" type="line"/>
      <point x="463" y="0" type="line"/>
      <point x="299" y="0" type="line"/>
      <point x="342" y="391" type="line"/>
      <point x="70" y="350" type="line"/>
      <point x="70" y="492" type="line"/>
      <point x="342" y="453" type="line"/>
      <point x="301" y="737" type="line"/>
      <point x="342" y="1022" type="line"/>
      <point x="70" y="983" type="line"/>
      <point x="70" y="1124" type="line"/>
      <point x="342" y="1083" type="line"/>
      <point x="299" y="1475" type="line"/>
      <point x="463" y="1475" type="line"/>
      <point x="422" y="1083" type="line"/>
      <point x="694" y="1124" type="line"/>
      <point x="694" y="983" type="line"/>
      <point x="422" y="1022" type="line"/>
      <point x="461" y="737" type="line"/>
      <point x="422" y="453" type="line"/>
    </contour>
  </outline>
</glyph>
<glyph name="ellipsis" format="1">
  <advance width="1060.864"/>
  <unicode hex="2026"/>
  <outline>
    <contour>
      <point x="170" y="186" type="qcurve" smooth="yes"/>
      <point x="212.537313433" y="186.0"/>
      <point x="268.0" y="128.537313433"/>
      <point x="268" y="86" type="qcurve" smooth="yes"/>
      <point x="268.0" y="43.4626865672"/>
      <point x="212.537313433" y="-14.0"/>
      <point x="170" y="-14" type="qcurve" smooth="yes"/>
      <point x="127.462686567" y="-14.0"/>
      <point x="70.0" y="43.4626865672"/>
      <point x="70" y="86" type="qcurve" smooth="yes"/>
      <point x="70.0" y="128.537313433"/>
      <point x="127.462686567" y="186.0"/>
    </contour>
    <contour>
      <point x="530" y="186" type="qcurve" smooth="yes"/>
      <point x="573.28358209" y="186.0"/>
      <point x="629.0" y="128.537313433"/>
      <point x="629" y="86" type="qcurve" smooth="yes"/>
      <point x="629.0" y="43.4626865672"/>
      <point x="573.28358209" y="-14.0"/>
      <point x="530" y="-14" type="qcurve" smooth="yes"/>
      <point x="487.462686567" y="-14.0"/>
      <point x="432.0" y="43.4626865672"/>
      <point x="432" y="86" type="qcurve" smooth="yes"/>
      <point x="432.0" y="128.537313433"/>
      <point x="487.462686567" y="186.0"/>
    </contour>
    <contour>
      <point x="891" y="186" type="qcurve" smooth="yes"/>
      <point x="933.537313433" y="186.0"/>
      <point x="989.0" y="128.537313433"/>
      <point x="989" y="86" type="qcurve" smooth="yes"/>
      <point x="989.0" y="43.4626865672"/>
      <point x="933.537313433" y="-14.0"/>
      <point x="891" y="-14" type="qcurve" smooth="yes"/>
      <point x="846.223880597" y="-14.0"/>
      <point x="791.0" y="43.4626865672"/>
      <point x="791" y="86" type="qcurve" smooth="yes"/>
      <point x="791.0" y="128.537313433"/>
      <point x="846.223880597" y="186.0"/>
    </contour>
  </outline>
</glyph>
<glyph name="guilsinglleft" format="1">
  <advance width="440.32"/>
  <unicode hex="2039"/>
  <outline>
    <contour>
      <point x="203" y="532" type="line"/>
      <point x="383" y="156" type="line"/>
      <point x="291" y="156" type="line"/>
      <point x="33" y="532" type="line"/>
      <point x="291" y="911" type="line"/>
      <point x="383" y="911" type="line"/>
    </contour>
  </outline>
</glyph>
<glyph name="trademark" format="1">
  <advance width="1103.872"/>
  <unicode hex="2122"/>
  <outline>
    <contour>
      <point x="1032" y="1475" type="line"/>
      <point x="1032" y="903" type="line"/>
      <point x="940" y="903" type="line"/>
      <point x="940" y="1362" type="line"/>
      <point x="936" y="1362" type="line"/>
      <point x="817" y="903" type="line"/>
      <point x="715" y="903" type="line"/>
      <point x="594" y="1362" type="line"/>
      <point x="590" y="1362" type="line"/>
      <point x="590" y="903" type="line"/>
      <point x="506" y="903" type="line"/>
      <point x="506" y="1475" type="line"/>
      <point x="653" y="1475" type="line"/>
      <point x="768" y="1024" type="line"/>
      <point x="772" y="1024" type="line"/>
      <point x="887" y="1475" type="line"/>
    </contour>
    <contour>
      <point x="424" y="1475" type="line"/>
      <point x="424" y="1393" type="line"/>
      <point x="281" y="1393" type="line"/>
      <point x="281" y="903" type="line"/>
      <point x="184" y="903" type="line"/>
      <point x="184" y="1393" type="line"/>
      <point x="41" y="1393" type="line"/>
      <point x="41" y="1475" type="line"/>
    </contour>
  </outline>
</glyph>
<glyph name="fi" format="1">
  <advance width="927.744"/>
  <unicode hex="FB01"/>
  <outline>
    <contour>
      <point x="563" y="1534" type="qcurve"/>
      <point x="563" y="1411" type="line"/>
      <point x="538.373134328" y="1425.17910448"/>
      <point x="490.074626866" y="1440.0"/>
      <point x="455" y="1440" type="qcurve" smooth="yes"/>
      <point x="402.76119403" y="1440.0"/>
      <point x="338.0" y="1369.85074627"/>
      <point x="338" y="1290" type="qcurve" smooth="yes"/>
      <point x="338" y="1059" type="line"/>
      <point x="530" y="1059" type="line"/>
      <point x="530" y="944" type="line"/>
      <point x="338" y="944" type="line"/>
      <point x="338" y="0" type="line"/>
      <point x="180" y="0" type="line"/>
      <point x="180" y="944" type="line"/>
      <point x="18" y="944" type="line"/>
      <point x="18" y="1059" type="line"/>
      <point x="180" y="1059" type="line"/>
      <point x="180" y="1298" type="line" smooth="yes"/>
      <point x="180.0" y="1426.35820896"/>
      <point x="307.044776119" y="1554.0"/>
      <point x="416" y="1554" type="qcurve" smooth="yes"/>
      <point x="468.985074627" y="1554.0"/>
      <point x="533.895522388" y="1544.44776119"/>
    </contour>
    <contour>
      <point x="815" y="1067" type="line"/>
      <point x="815" y="0" type="line"/>
      <point x="655" y="0" type="line"/>
      <point x="655" y="1067" type="line"/>
    </contour>
    <contour>
      <point x="823" y="1475" type="line"/>
      <point x="823" y="1298" type="line"/>
      <point x="647" y="1298" type="line"/>
      <point x="647" y="1475" type="line"/>
    </contour>
  </outline>
</glyph>
<glyph name="bullet" format="1">
  <advance width="626.688"/>
  <outline>
    <contour>
      <point x="313" y="987" type="qcurve" smooth="yes"/>
      <point x="407.776119403" y="987.0"/>
      <point x="537.0" y="857.28358209"/>
      <point x="537" y="764" type="qcurve" smooth="yes"/>
      <point x="537.0" y="670.71641791"/>
      <point x="407.776119403" y="541.0"/>
      <point x="313" y="541" type="qcurve" smooth="yes"/>
      <point x="219.71641791" y="541.0"/>
      <point x="88.0" y="670.71641791"/>
      <point x="88" y="764" type="qcurve" smooth="yes"/>
      <point x="88.0" y="857.28358209"/>
      <point x="219.71641791" y="987.0"/>
    </contour>
  </outline>
</glyph>
<glyph name="macron" format="1">
  <advance width="804.864"/>
  <outline>
    <contour>
      <point x="633" y="1366" type="line"/>
      <point x="633" y="1260" type="line"/>
      <point x="172" y="1260" type="line"/>
      <point x="172" y="1366" type="line"/>
    </contour>
  </outline>
</glyph>
